<svg width="48" height="48" viewBox="0 0 48 48" fill="none" xmlns="http://www.w3.org/2000/svg">
<rect width="48" height="48" rx="24" fill="#DEF0FF"/>
<path d="M21.5999 10.8C15.9608 10.8 11.3999 15.3609 11.3999 21C11.3999 26.6391 15.9608 31.2 21.5999 31.2C23.6132 31.2 25.4765 30.6094 27.0562 29.6062L34.4249 36.975L36.9749 34.425L29.6999 27.1687C31.0077 25.4531 31.7999 23.3273 31.7999 21C31.7999 15.3609 27.239 10.8 21.5999 10.8ZM21.5999 13.2C25.9194 13.2 29.3999 16.6805 29.3999 21C29.3999 25.3195 25.9194 28.8 21.5999 28.8C17.2804 28.8 13.7999 25.3195 13.7999 21C13.7999 16.6805 17.2804 13.2 21.5999 13.2Z" fill="#3C3C3C"/>
</svg>
